<?xml version="1.0" encoding="UTF-8" standalone="no"?>

<svg
   width="210mm"
   height="240mm"
   viewBox="0 0 210 240"
   version="1.1"
   id="svg1"
   xmlns="http://www.w3.org/2000/svg"
   xmlns:svg="http://www.w3.org/2000/svg">
  <defs
     id="defs1" />
  <g
     id="layer1">
    <path
       style="display:inline;fill:none;stroke:#000000;stroke-width:1.05176px;stroke-linecap:butt;stroke-linejoin:miter;stroke-opacity:1"
       d="M 71.997567,111.57127 C 88.761269,99.708927 91.950691,114.11826 95.330142,111.39514 96.453043,111.9336 98.067385,98.169311 84.475399,97.329649 68.157206,98.079953 66.688695,111.72533 71.997567,111.57127 Z"
       id="path20-2" />
    <path
       style="display:inline;fill:none;stroke:#000000;stroke-width:8.25304;stroke-linecap:round;stroke-linejoin:round;stroke-dasharray:none;stroke-opacity:1"
       d="m 160.56414,13.279955 c 18.20387,22.810029 -8.43579,45.709573 -8.43579,45.709573 44.0371,-3.107648 53.15722,30.51407 51.53473,32.286205 0.22391,6.447209 -4.81529,0.390147 -4.09763,11.319357 0.64788,9.86637 -30.79184,-12.854591 -32.18,-5.507703 4.17819,42.312443 12.90468,95.351503 -15.86527,131.234373 -5.7447,2.79185 -7.60402,1.82986 -30.75738,-0.30597 -3.69069,1.93351 -25.612101,4.31956 -25.612101,4.31956 -36.332364,-6.5952 -45.36027,-29.50122 -42.489314,-65.33058 l -2.672087,-65.39995 c 0,0 -8.766598,-0.26881 -9.248102,1.78496 0,0 -16.752413,15.89733 -20.395536,15.35918 0,0 -2.512833,2.3044 -12.1964889,-2.24296 0,0 -6.2772707,-7.49413 4.6724199,-28.680607 23.874064,-31.550437 40.603214,-25.992771 41.384675,-26.391438 0,0 -3.174181,-12.38246 -4.331066,-13.742954 0,0 -13.006933,-23.747803 7.500825,-41.5220102 2.35678,-0.6733703 1.299166,20.8786392 23.187325,38.9232682 20.19192,-4.496598 39.72115,-4.789999 49.44649,-0.0406 0,0 23.96706,-17.702619 30.5543,-31.771705 z"
       id="path3" />
    <path
       style="display:inline;fill:none;stroke:#000000;stroke-width:1.05176px;stroke-linecap:butt;stroke-linejoin:miter;stroke-opacity:1"
       d="m 52.759726,166.49493 56.391794,-5.41686 63.24944,-4.11501"
       id="path4" />
    <circle
       style="display:inline;fill:#ffffff;stroke:#000000;stroke-width:1.69019;stroke-linejoin:bevel;stroke-miterlimit:8.7"
       id="path5"
       cx="138.49504"
       cy="197.06815"
       r="11.351478" />
    <path
       style="display:inline;fill:none;stroke:#000000;stroke-width:1.45093;stroke-linecap:butt;stroke-linejoin:round;stroke-miterlimit:48.6;stroke-dasharray:none;stroke-opacity:1"
       d="M 81.433689,212.34349 102.35977,199.57496 84.677887,189.55443 Z"
       id="path6" />
    <path
       style="display:inline;fill:none;stroke:#000000;stroke-width:1.05176px;stroke-linecap:butt;stroke-linejoin:miter;stroke-opacity:1"
       d="m 113.35956,41.763556 c 0,0 -11.22149,11.346023 -11.45568,22.210787 0.95624,13.380153 6.67596,24.623314 6.7779,39.238647 -4.47669,20.66899 -33.727234,16.04066 -55.926092,62.97514"
       id="path17" />
    <path
       style="display:inline;fill:none;stroke:#000000;stroke-width:1.04525px;stroke-linecap:butt;stroke-linejoin:miter;stroke-opacity:1"
       d="m 122.20053,108.50002 c 18.06455,-10.872207 21.50146,2.3344 25.14315,-0.16143 1.21003,0.49351 2.94966,-12.12188 -11.69705,-12.891452 -17.58448,0.68767 -19.16694,13.194082 -13.4461,13.052882 z"
       id="path20" />
    <path
       style="display:inline;fill:#000000;stroke:#000000;stroke-width:0.795032;stroke-linecap:round;stroke-linejoin:round;stroke-miterlimit:48.6;stroke-dasharray:none"
       d="m 53.183083,163.2886 c -0.194694,-6.90484 -2.608997,-62.25858 -2.720328,-62.3699 -0.224687,-0.22469 -7.190301,0.36017 -8.317105,0.69833 -0.562346,0.16877 -1.789586,1.10855 -3.15528,2.41621 -3.108557,2.97646 -8.91569,7.95338 -11.860765,10.16513 -3.583029,2.69082 -5.291016,3.64056 -7.47148,4.15461 -1.783648,0.4205 -2.096433,0.42455 -3.989557,0.0515 -1.129788,-0.22257 -3.208436,-0.85997 -4.619226,-1.41643 L 8.484289,115.97633 7.9479794,114.5429 c -1.9839537,-5.30258 -0.7262288,-12.90193 3.7878796,-22.886894 1.561127,-3.453137 2.850112,-5.254222 7.762652,-10.846692 6.450217,-7.342965 13.006477,-12.591067 19.826435,-15.870487 4.265067,-2.050875 7.282246,-2.789226 11.859509,-2.902171 2.006692,-0.04954 3.691715,-0.13323 3.744494,-0.186005 0.127192,-0.12716 -2.092635,-8.119017 -3.06218,-11.024524 -0.420397,-1.259829 -1.16557,-3.093832 -1.655942,-4.07557 -0.490371,-0.981721 -1.260836,-2.909031 -1.712147,-4.28289 -4.123542,-12.552841 -1.787182,-24.302939 6.561412,-32.9990469 1.180086,-1.2291928 2.232032,-2.2349043 2.337663,-2.2349043 0.105626,0 0.394674,0.7395118 0.642322,1.6433732 2.398165,8.752775 3.654315,12.263394 6.121575,17.10825 3.413296,6.702559 9.085352,13.844272 14.795586,18.629179 l 1.446171,1.211815 2.89234,-0.61939 c 7.160566,-1.533445 16.039514,-2.617935 23.796061,-2.906496 4.76419,-0.177234 4.85625,-0.170619 4.46998,0.321564 -0.21693,0.276392 -0.97708,1.212579 -1.68925,2.080413 -4.07808,4.969521 -7.42354,11.526895 -8.30352,16.275624 -0.63496,3.426474 0.13435,9.026328 2.65869,19.352967 2.72843,11.161554 3.60586,16.149204 3.6774,20.903725 0.034,2.26182 -0.0568,2.8819 -0.64984,4.43564 -0.96906,2.53891 -2.33891,4.68628 -4.34982,6.81871 -2.26414,2.40095 -4.641571,4.21592 -12.08883,9.22882 -6.484395,4.36478 -10.188638,7.07723 -13.276554,9.72186 -8.718423,7.46683 -16.01285,16.71632 -22.213815,28.16764 -1.17467,2.16925 -2.139091,3.82577 -2.143168,3.68115 z m 42.847045,-51.5365 c 0.689345,-0.68887 0.720655,-4.71438 0.05374,-6.91004 -1.275551,-4.19946 -4.400266,-6.84979 -9.229547,-7.828329 -1.857335,-0.376348 -2.525276,-0.396246 -4.556247,-0.135789 -8.003415,1.026401 -13.595496,5.691008 -13.595496,11.340628 0,1.86851 0.490373,2.97156 1.569035,3.52936 1.213964,0.62776 1.966064,0.48239 3.878766,-0.74977 3.82589,-2.46463 6.559814,-3.43387 9.671243,-3.42872 2.528557,0.004 4.118896,0.61519 6.704972,2.57602 2.733931,2.07294 3.184642,2.30472 4.18883,2.15419 0.496137,-0.0744 1.087751,-0.32077 1.314699,-0.54755 z"
       id="path50" />
    <path
       style="display:inline;fill:#000000;stroke:#000000;stroke-width:2.07399;stroke-linecap:round;stroke-linejoin:round;stroke-miterlimit:48.6;stroke-dasharray:none"
       d="m 89.002863,230.20495 c -24.052951,-6.35307 -34.761078,-20.6368 -36.060766,-48.10199 -0.206305,-4.35965 0.187297,-14.39908 0.579916,-14.79171 0.102308,-0.10226 13.094806,-1.42034 28.872223,-2.92897 26.466654,-2.53074 37.502474,-3.35804 84.603214,-6.3423 l 4.35153,-0.2757 -0.23958,6.35033 c -0.79496,21.07223 -4.76627,37.91059 -12.14825,51.50873 -1.9228,3.54193 -6.25236,10.14573 -7.55729,11.52699 -1.18022,1.24927 -4.13231,2.12661 -7.20138,2.14018 -2.95846,0.0131 -20.13924,-1.55876 -20.13924,-1.84251 0,-0.11298 1.02857,-0.71478 2.2857,-1.33736 6.49862,-3.21834 9.36555,-7.07001 7.01329,-9.42227 -0.53786,-0.53787 -1.98474,-0.81232 -1.98474,-0.37648 0,0.10871 0.35827,0.68226 0.79616,1.27452 0.72465,0.98016 0.74928,1.16527 0.27428,2.06143 -1.3937,2.6294 -10.6254,7.67582 -16.24751,8.88153 -4.36913,0.93702 -15.71859,2.57148 -19.382768,2.79136 -2.526985,0.15164 -3.591985,-5.5e-4 -7.814789,-1.11578 z m 3.782457,-23.65499 c 7.027692,-4.27699 10.42572,-6.54609 10.42837,-6.96371 0.003,-0.4283 -2.7186,-2.16364 -8.818059,-5.62309 -4.852088,-2.75199 -9.112352,-5.07955 -9.467251,-5.17236 -0.354894,-0.0928 -0.764118,0.0237 -0.90939,0.25864 -0.414385,0.67048 -3.545923,23.06248 -3.31094,23.67483 0.127956,0.33345 0.491833,0.47354 0.931413,0.35859 0.396782,-0.10374 5.412418,-3.04357 11.145857,-6.5329 z m 51.28526,1.50846 c 4.11449,-2.02556 6.3676,-5.56872 6.61184,-10.39756 0.11966,-2.36574 -0.003,-3.34466 -0.63034,-5.00603 -2.19045,-5.80659 -8.89528,-9.18566 -14.81294,-7.46535 -5.62593,1.63551 -8.98163,6.08444 -8.98163,11.9077 0,9.31506 9.4033,15.10136 17.81307,10.96124 z"
       id="path53" />
    <path
       style="display:inline;fill:#ffffff;stroke:#000000;stroke-width:0.062112;stroke-linecap:round;stroke-linejoin:round;stroke-miterlimit:48.6;stroke-dasharray:none"
       d="m 82.425387,210.71301 c 0.02083,-0.0885 0.666291,-4.59806 1.434377,-10.0212 0.768083,-5.42314 1.405354,-9.87142 1.416144,-9.88508 0.02504,-0.0317 15.537512,8.7564 15.534292,8.80045 -8.4e-4,0.018 -4.055661,2.50287 -9.00965,5.52174 -4.953987,3.0189 -9.098541,5.54652 -9.210132,5.61693 l -0.202895,0.12809 z"
       id="path52" />
    <path
       style="display:inline;fill:#ffffff;stroke:#000000;stroke-width:1.05341;stroke-linecap:round;stroke-linejoin:round;stroke-dasharray:none;stroke-opacity:1"
       d="m 120.61119,228.07583 c 0,0 17.78901,-7.20964 11.60742,-11.4414"
       id="path7" />
    <path
       style="display:inline;fill:#000000;stroke:#000000;stroke-width:0.5185;stroke-linecap:round;stroke-linejoin:round;stroke-miterlimit:48.6;stroke-dasharray:none"
       d="m 145.8104,107.98689 c -0.46614,-0.17235 -0.71069,-0.32096 -2.41944,-1.47012 -2.73561,-1.83978 -4.64837,-2.60528 -7.14987,-2.86142 -2.64329,-0.27066 -5.75584,0.3043 -9.09256,1.6796 -1.01788,0.41955 -3.19418,1.50014 -4.2987,2.13442 -0.78698,0.45194 -0.8165,0.46288 -1.15508,0.42793 -0.74488,-0.0768 -1.41623,-0.6015 -1.69829,-1.32712 -0.21083,-0.5424 -0.24097,-1.508 -0.0684,-2.19058 0.50406,-1.99326 2.11634,-3.96535 4.39962,-5.381491 2.73208,-1.694484 6.69084,-2.785559 10.70805,-2.951252 2.26706,-0.09351 5.28196,0.545882 7.21308,1.529713 3.40545,1.734963 5.40607,4.98067 5.27867,8.56388 -0.0428,1.20121 -0.14039,1.51969 -0.53745,1.75238 -0.38535,0.22583 -0.74562,0.25456 -1.17967,0.094 z"
       id="path54" />
  </g>
</svg>
